<?xml version="1.0" encoding="utf-8"?> 
<!-- Generator:   Adobe  Illustrator 22.1 .0, SVG Export Plug-In . SVG Version: 6.00 Build 0)  -->
<svg version="1.1" id="Layer_1" xmlns="http://www.w3.org/2000/svg" xmlns:xlink="http://www.w3.org/1999/xlink" x="0px" y="0px"
	 viewBox="0 0 792 612" style="enable-background:new 0 0 792 612;" xml:space="preserve">
<path d="M604.6,281.4c0-1.4-1.2-2.2-2.5-2.2h-2.8v7.2h1.3v-2.5h1.2l1.8,2.5h1.3V286l-1.7-2.3c0.8-0.4,1.4-1.1,1.4-2.1V281.4z
	 M602.1,280.3c0.8,0,1.2,0.6,1.2,1.2c0,0.6-0.4,1.2-1.3,1.2h-1.5v-2.4H602.1z M601.8,277.2c3.1,0,5.4,2.5,5.4,5.6
	c0,3.1-2.3,5.6-5.4,5.6c-3.1,0-5.4-2.5-5.4-5.6C596.4,279.7,598.7,277.2,601.8,277.2 M601.8,289.6c3.8,0,6.7-3,6.7-6.8
	c0-3.7-2.9-6.8-6.7-6.8c-3.8,0-6.7,3-6.7,6.8C595,286.6,597.9,289.6,601.8,289.6"/>
<g>
	<path d="M592.1,290.4v-0.7h-3.9l-11.4,27.5h-0.1l-11.2-27.5h-4v0.7l13.1,31.2l-5.2,12v0.7h4L592.1,290.4z M556.5,318.8
		c0.5,1.2,0.8,2.4,1.2,3.7h2.8v-21.1c0-9.7-5.1-12.7-12.3-12.7c-6,0-11.1,2.4-12,9.3v0.4h4c0.2-4.6,4-6,8.1-6c6.2,0,8.2,3.5,8.2,9.1
		v2.2c-2.6-1-5.3-1.2-8.1-1.2c-7.9,0-13.7,3.7-13.7,10.8v0.4c0,2.6,0.9,4.8,2.8,6.6c2,2.1,5.3,3.3,8.7,3.3c3.7,0,7.9-1.9,10.1-4.7
		H556.5z M546.9,319.8c-4.5,0-8-2.2-8-6.8c0-5.1,4.7-7.1,9.5-7.1c2.7,0,5.5,0.5,8.2,1.4v2.9C556.7,315.9,551.5,319.8,546.9,319.8
		 M499.7,306.7c0,11.6,7.9,16.7,15.5,16.7c4.6,0,9.5-2.1,11.3-5.3h0.1l1.3,4.3h2.8v-46h-3.9v17.4h-0.1c-2.3-3.2-6.4-5.3-11-5.3
		c-10.6,0-16,7-16,16.8V306.7z M515.7,292.3c8.1,0,11.4,6.6,11.4,13.9c0,7.2-3.4,13.6-11.4,13.6c-8.1,0-11.9-6.2-11.9-13.7
		C503.8,298.3,507.3,292.3,515.7,292.3 M481.1,319.8c-7.6,0-11.6-6-11.6-13.8c0-7.8,4-13.7,11.6-13.7c7.6,0,11.6,5.8,11.6,13.7
		C492.7,313.8,488.7,319.8,481.1,319.8 M465.4,306.5c0,10.8,6.8,17,15.8,17c8.7,0,15.6-6.2,15.6-17v-0.9c0-10.8-6.8-16.9-15.8-16.9
		c-8.7,0-15.6,6-15.6,16.9V306.5z M438.9,283.6h13.3v38.9h4.1v-38.9h12.7v-3.8h-30.1V283.6z M443.5,290.4v-0.7h-3.9l-11.4,27.5h-0.1
		l-11.2-27.5h-4v0.7l13.1,31.2l-5.2,12v0.7h4L443.5,290.4z M410.4,289.6h-2.8l-1.2,4.1h-0.1c-2.1-3-6.7-5.1-10.9-5.1
		c-10.6,0-16,6.8-16,16.6v1.2c0,11.6,7.9,15.7,15.7,15.7c4.4,0,9.2-2,11-5.2h0.1v5.1c0,5.6-3.4,9.9-11.3,9.9
		c-6.9,0-9.9-3.9-10.2-8.9h-4.1v0.5c0.5,7.4,5.6,12.2,14.8,12.2c8,0,15.2-5,15.2-13.5V289.6z M383.4,305.9c0-7.9,3.5-13.7,11.9-13.7
		c8.1,0,11.4,6.2,11.4,13.6c0,7.1-4.1,12.7-11.4,12.7C387.3,318.5,383.4,313.4,383.4,305.9 M360.8,319.8c-7.6,0-11.6-6-11.6-13.8
		c0-7.8,4-13.7,11.6-13.7s11.6,5.8,11.6,13.7C372.4,313.8,368.4,319.8,360.8,319.8 M345.1,306.5c0,10.8,6.8,17,15.8,17
		c8.7,0,15.6-6.2,15.6-17v-0.9c0-10.8-6.8-16.9-15.8-16.9c-8.7,0-15.6,6-15.6,16.9V306.5z M339.9,276.5h-3.9v40.3c0,3.7,1.8,6,5.8,6
		c0.9,0,2.1,0,2.7-0.2v-3.5h-0.6c-2.6,0.5-3.9-0.5-3.9-3.1V276.5z M315.9,319.8c-7.6,0-11.6-6-11.6-13.8c0-7.8,4-13.7,11.6-13.7
		c7.6,0,11.6,5.8,11.6,13.7C327.5,313.8,323.5,319.8,315.9,319.8 M300.2,306.5c0,10.8,6.8,17,15.8,17c8.7,0,15.6-6.2,15.6-17v-0.9
		c0-10.8-6.8-16.9-15.8-16.9c-8.7,0-15.6,6-15.6,16.9V306.5z M288.4,307c0-6.7,0.7-13.6,10.8-13.6h0.8v-3.9
		c-0.3-0.1-1.3-0.1-1.5-0.1c-4.2,0-8.5,1.8-10.2,5.5h-0.1l-1.4-5.2h-2.3v32.8h3.9V307z M252.8,289.6v20.5c0,10,7,13.4,13.1,13.4
		s13.1-3.4,13.1-13.4v-20.5H275v20.5c0,7.1-4.9,9.7-9.1,9.7s-9.1-2.6-9.1-9.7v-20.5H252.8z M223.4,303.6c0.7-7,4.3-11.4,11.2-11.4
		c7.7,0,9.7,6.1,10.4,11.4H223.4z M244.1,313.6c-1.3,3.9-4.5,6.2-9.6,6.2c-7.2,0-10.9-5.4-11.2-12.6h25.6c0.1-0.7,0.1-1,0.1-1.4
		c0-8.4-3.8-17.1-14.5-17.1c-9.5,0-15.2,6.7-15.2,17v0.7c0,10.5,6,17.1,15.4,17.1c6.8,0,12-3.7,13.5-9.9H244.1z M185.9,322.5v-36.2
		h0.1l24.8,36.2h4.5v-42.7h-4.1v35.9h-0.1l-24.7-35.9h-4.6v42.7H185.9z"/>
</g>
</svg>
