<svg xmlns="http://www.w3.org/2000/svg" viewBox="0 0 250 250"><defs><style>.cls-1,.cls-2,.cls-3,.cls-4,.cls-5{fill:none;stroke:#000;stroke-linecap:round;}.cls-1{stroke-linejoin:round;}.cls-1,.cls-2{stroke-width:7px;}.cls-2,.cls-3,.cls-4,.cls-5{stroke-miterlimit:10;}.cls-3{stroke-width:6.5px;}.cls-4{stroke-width:3.4px;}.cls-5{stroke-width:3.33px;}</style></defs><title>Artboard 11</title><g id="Icons"><polyline class="cls-1" points="87.82 67.53 173.51 67.53 173.51 153.77 87.86 153.77 87.86 69.07"/><path class="cls-2" d="M87.86,182.51a14.37,14.37,0,1,1,0-28.74"/><path class="cls-2" d="M73.48,168.14V80.83a14.36,14.36,0,0,1,14.33-13.3"/><line class="cls-3" x1="173.42" y1="168.14" x2="88.15" y2="168.14"/><line class="cls-2" x1="173.22" y1="182.51" x2="87.86" y2="182.51"/><path class="cls-4" d="M136.4,135h-9c-1.91,0-3.91-1.52-3.91-3.4V131c0-1.88,2-3.4,3.91-3.4h7.34c2.18,0,4.41-1.74,4.41-3.88v-.63c0-2.14-2.23-3.88-4.41-3.88h-8.61c-2.45,0-4.9-2-4.9-4.37v-.71c0-2.41,2.45-4.37,4.9-4.37H136.6c2.72,0,5.39-2.18,5.39-4.86v-.78c0-2.69-2.67-4.86-5.39-4.86h-5.91"/><line class="cls-5" x1="130.69" y1="86.82" x2="130.69" y2="141.85"/><path d="M136.31,88.91l9.94-8.42a.42.42,0,0,1,.48,0l14.4,8.33a.51.51,0,0,1-.2.93l-11,.53-.11,0-13.54,4.47a.45.45,0,0,1-.56-.51l.44-5A.51.51,0,0,1,136.31,88.91Z"/><path d="M125.06,88.91l-9.94-8.42a.42.42,0,0,0-.48,0l-14.4,8.33a.51.51,0,0,0,.2.93l11,.53.11,0,13.54,4.47a.45.45,0,0,0,.56-.51l-.43-5A.57.57,0,0,0,125.06,88.91Z"/><path class="cls-4" d="M130.69,109.78h-5.91c-2.73,0-5.39-2.18-5.39-4.86v-.78c0-2.69,2.66-4.86,5.39-4.86h5.91"/><circle cx="130.69" cy="83.87" r="4.41"/></g><g id="Circles"><path d="M125,22A103,103,0,1,1,22,125,103.12,103.12,0,0,1,125,22m0-7A110,110,0,1,0,235,125,110,110,0,0,0,125,15Z"/></g></svg>