<svg xmlns="http://www.w3.org/2000/svg" viewBox="0 0 250 250"><defs><style>.cls-1,.cls-2{fill:none;stroke:#000;stroke-linecap:round;}.cls-1{stroke-miterlimit:10;stroke-width:7px;}.cls-2{stroke-linejoin:round;stroke-width:7.57px;}</style></defs><title>Artboard 1</title><g id="Icons"><line class="cls-1" x1="100" y1="200" x2="150" y2="200"/><line class="cls-1" x1="125" y1="200" x2="125" y2="175"/><path class="cls-1" d="M145.52,79.42c20.59,9.49,33.13,33.52,28.43,55.82-4.66,22.07-25.36,39.22-47.9,39.75a50.75,50.75,0,0,1-38.35-16.7"/><rect class="cls-2" x="87.82" y="73.57" width="69.99" height="27.71" transform="translate(-8.33 161.78) rotate(-65)"/><line class="cls-1" x1="94.76" y1="125.34" x2="111.8" y2="133.29"/><line class="cls-1" x1="119.88" y1="155.79" x2="72.33" y2="133.62"/><line class="cls-1" x1="94.16" y1="144.71" x2="88.59" y2="156.65"/></g><g id="Circles"><path d="M125,22A103,103,0,1,1,22,125,103.12,103.12,0,0,1,125,22m0-7A110,110,0,1,0,235,125,110,110,0,0,0,125,15Z"/></g></svg>